<?xml version="1.0" standalone="no"?>
<!DOCTYPE svg PUBLIC "-//W3C//DTD SVG 20010904//EN"
 "http://www.w3.org/TR/2001/REC-SVG-20010904/DTD/svg10.dtd">
<svg version="1.0" xmlns="http://www.w3.org/2000/svg"
 width="300.000000pt" height="300.000000pt" viewBox="0 0 300.000000 300.000000"
 preserveAspectRatio="xMidYMid meet">
<metadata>
Created by potrace 1.14, written by Peter Selinger 2001-2017
</metadata>
<g transform="translate(0.000000,300.000000) scale(0.100000,-0.100000)"
fill="#000000" stroke="none">
<path d="M628 2905 c-3 -3 -47 -7 -99 -9 -54 -2 -95 -8 -97 -14 -2 -6 -9 -9
-17 -6 -7 3 -16 1 -20 -5 -3 -6 -14 -11 -24 -11 -10 0 -26 -9 -36 -20 -10 -11
-21 -18 -25 -15 -9 6 -111 -91 -103 -99 3 -3 1 -6 -6 -6 -7 0 -9 -5 -5 -12 4
-7 3 -8 -4 -4 -13 8 -76 -119 -67 -134 3 -5 1 -11 -4 -15 -12 -7 -11 98 -14
-1013 -1 -536 2 -976 6 -979 4 -3 4 -10 -1 -16 -4 -7 -7 -18 -6 -24 1 -7 2
-25 3 -39 1 -16 5 -23 13 -18 7 4 8 3 4 -5 -9 -14 24 -111 37 -111 4 0 5 -4 2
-10 -3 -5 -1 -10 4 -10 6 0 11 -7 11 -15 0 -8 5 -15 10 -15 6 0 10 -4 10 -10
0 -5 9 -19 20 -30 11 -11 20 -18 20 -16 0 2 16 -12 35 -31 20 -20 39 -32 46
-27 8 4 9 3 5 -4 -4 -7 3 -14 19 -18 14 -3 25 -11 25 -17 0 -6 3 -8 6 -4 4 3
20 -1 36 -9 19 -10 27 -11 23 -4 -4 7 5 4 21 -6 21 -14 26 -15 19 -4 -7 12 -6
13 6 3 11 -9 252 -12 1017 -12 551 0 1004 4 1007 9 3 4 13 6 23 3 25 -6 154
46 145 60 -3 6 -1 7 5 3 6 -4 20 2 32 14 11 11 20 17 20 13 0 -5 12 6 26 22
14 17 37 43 51 58 13 16 22 31 19 34 -2 3 4 14 14 26 11 11 17 24 14 29 -3 4
-1 8 3 8 11 0 35 88 28 100 -3 5 -2 11 2 13 10 6 10 1918 0 1934 -4 6 -3 14 2
17 9 6 5 68 -6 96 -9 22 -10 28 -12 51 -1 12 -5 17 -13 13 -6 -4 -8 -3 -4 4 7
11 -31 92 -43 92 -4 0 -13 12 -19 26 -7 14 -17 22 -22 19 -6 -4 -9 -1 -8 5 3
13 -117 102 -126 93 -3 -4 -6 -1 -6 6 0 7 -4 9 -10 6 -5 -3 -10 -2 -10 4 0 5
-11 8 -25 7 -13 -2 -22 1 -19 5 3 5 -5 9 -18 10 -13 0 -32 2 -42 4 -43 8 -122
9 -133 2 -8 -5 -13 -4 -13 3 0 7 -6 8 -19 0 -14 -7 -22 -7 -26 0 -5 8 -11 7
-21 -1 -11 -9 -14 -9 -14 0 0 8 -5 9 -17 2 -10 -5 -26 -5 -40 0 -14 5 -25 4
-29 -2 -4 -6 -11 -6 -20 2 -11 9 -14 9 -14 -1 0 -9 -4 -9 -13 -2 -8 7 -18 7
-27 2 -8 -5 -21 -5 -30 0 -9 5 -22 5 -28 1 -7 -4 -33 -5 -58 -1 -24 4 -47 3
-50 -2 -3 -4 -11 -5 -17 -1 -17 11 -30 11 -44 0 -9 -6 -13 -5 -13 2 0 8 -5 9
-19 1 -14 -7 -22 -7 -26 0 -5 8 -11 7 -21 -1 -11 -9 -14 -9 -14 0 0 8 -5 9
-17 2 -10 -5 -26 -5 -40 0 -14 5 -25 4 -29 -2 -4 -6 -11 -6 -20 2 -11 9 -14 9
-14 -1 0 -9 -4 -9 -13 -2 -8 7 -18 7 -27 2 -8 -5 -21 -5 -30 0 -9 5 -22 5 -28
1 -7 -4 -33 -5 -58 -1 -24 4 -47 3 -50 -2 -3 -5 -11 -5 -17 0 -14 10 -27 10
-44 -1 -8 -5 -13 -4 -13 3 0 7 -6 8 -19 0 -14 -7 -22 -7 -26 0 -5 8 -11 7 -21
-1 -11 -9 -14 -9 -14 0 0 8 -5 9 -17 2 -10 -5 -26 -5 -40 0 -14 5 -25 4 -29
-2 -4 -6 -11 -6 -20 2 -11 9 -14 9 -14 -1 0 -9 -4 -9 -13 -2 -8 7 -18 7 -27 2
-8 -5 -21 -5 -30 0 -9 5 -22 5 -28 1 -7 -4 -33 -5 -58 -1 -24 4 -47 3 -50 -2
-3 -4 -11 -5 -17 -1 -17 11 -30 11 -44 0 -9 -6 -13 -5 -13 2 0 8 -5 9 -19 1
-14 -7 -22 -7 -26 0 -5 8 -11 7 -21 -1 -11 -9 -14 -9 -14 0 0 8 -5 9 -17 2
-10 -5 -26 -5 -40 0 -14 5 -25 4 -29 -2 -4 -6 -11 -6 -20 2 -11 9 -14 9 -14
-1 0 -9 -4 -9 -13 -2 -8 7 -18 7 -27 2 -8 -5 -21 -5 -31 0 -9 5 -19 7 -21 5z"/>
</g>
</svg>
